PathFileType	3	(X/Y/Z)	F:\ViconData\AntennenMessung\Messung1\Session1\ID17.trc
DataRate	CameraRate	NumFrames	NumMarkers	Units	OrigDataRate	OrigDataStartFrame	OrigNumFrames
120.0	120.0	4	70	mm	120.0	441	880	
Frame#	Time	Ashort			Along			Atop			A4			Bshort			Blong			Btop			B4			Cshort			Clong			Ctop			C4			Dshort			Dlong			Dtop			D4			Eshort			Elong			Etop			E4			Fshort			Flong			Ftop			F4			Gshort			Glong			Gtop			G4			Hshort			Hlong			Htop			H4			I1			I2			I3			I4			I5			WandAshort			WandAlong			WandAtop			WandA4			WandA15			WandBshort			WandB4			WandB5			WandBtop			WandBlong			WandCshort			WandClong			WandCtop			WandC4			WandC5			Acenter			Aantenna			Bcenter			Bantenna			Ccenter			Cantenna			Dcenter			Dantenna			Ecenter			Eantenna			Fcenter			Fantenna			Gcenter			Gantenna			Hcenter			Hantenna			Icenter			Iantenna			
		X1	Y1	Z1	X2	Y2	Z2	X3	Y3	Z3	X4	Y4	Z4	X5	Y5	Z5	X6	Y6	Z6	X7	Y7	Z7	X8	Y8	Z8	X9	Y9	Z9	X10	Y10	Z10	X11	Y11	Z11	X12	Y12	Z12	X13	Y13	Z13	X14	Y14	Z14	X15	Y15	Z15	X16	Y16	Z16	X17	Y17	Z17	X18	Y18	Z18	X19	Y19	Z19	X20	Y20	Z20	X21	Y21	Z21	X22	Y22	Z22	X23	Y23	Z23	X24	Y24	Z24	X25	Y25	Z25	X26	Y26	Z26	X27	Y27	Z27	X28	Y28	Z28	X29	Y29	Z29	X30	Y30	Z30	X31	Y31	Z31	X32	Y32	Z32	X33	Y33	Z33	X34	Y34	Z34	X35	Y35	Z35	X36	Y36	Z36	X37	Y37	Z37	X38	Y38	Z38	X39	Y39	Z39	X40	Y40	Z40	X41	Y41	Z41	X42	Y42	Z42	X43	Y43	Z43	X44	Y44	Z44	X45	Y45	Z45	X46	Y46	Z46	X47	Y47	Z47	X48	Y48	Z48	X49	Y49	Z49	X50	Y50	Z50	X51	Y51	Z51	X52	Y52	Z52	X53	Y53	Z53	X54	Y54	Z54	X55	Y55	Z55	X56	Y56	Z56	X57	Y57	Z57	X58	Y58	Z58	X59	Y59	Z59	X60	Y60	Z60	X61	Y61	Z61	X62	Y62	Z62	X63	Y63	Z63	X64	Y64	Z64	X65	Y65	Z65	X66	Y66	Z66	X67	Y67	Z67	X68	Y68	Z68	X69	Y69	Z69	X70	Y70	Z70	
441	3.6666667	-1038.2402	214.52299	-1644.2362	-1109.381	204.13046	-1599.332	-1063.7273	172.99962	-1625.9852	-1054.199	262.18484	-1634.9551	-1352.9878	234.79556	1003.8149	-1281.3196	227.30235	1052.2916	-1322.8702	193.65857	1021.052	-1284.6576	287.80692	1052.8141	813.91913	187.63863	1209.4053	892.10919	178.35181	1179.2633	844.47937	145.50996	1198.2532	861.09692	292.52197	1169.3436	1115.7155	209.57611	-1401.6262	1056.2159	193.95798	-1460.3066	1095.1119	162.27888	-1423.9611	1069.8152	238.70944	-1425.8212	-1204.5118	1685.9299	-1563.2213	-1129.1431	1688.2794	-1606.05	-1173.2223	1724.3092	-1581.8656	-1134.0797	1580.9515	-1603.8361	-1239.4818	1698.951	1119.4409	-1309.2102	1698.525	1071.8414	-1270.344	1736.1785	1096.8569	-1245.3955	1592.5839	1110.6617	988.85663	1664.2223	1162.2399	955.80682	1702.3346	1181.1024	922.59717	1661.9795	1214.9799	939.77594	1659.3914	1159.9159	999.01379	1668.4163	-1579.4559	1058.7209	1669.9513	-1518.6603	1024.9576	1708.0182	-1551.1241	1059.2468	1672.115	-1585.4604	-184.53122	167.22026	-294.00278	-175.22316	174.72057	-377.53299	-180.26604	132.46114	-335.07843	-211.83525	170.24799	-333.10989	-133.12482	168.90685	-326.18665																																														-1068.5784	210.09103	-1625.0865	-1073.6346	248.75053	-1624.1498	-1321.6093	231.51482	1025.0394	-1320.3181	270.27899	1029.1224	848.20367	183.56656	1196.1887	851.99658	222.32469	1194.0863	1088.7527	202.49861	-1428.2177	1082.6951	240.81131	-1432.2727	-1171.9708	1686.9442	-1581.7129	-1170.6653	1647.9664	-1581.5537	-1270.894	1698.759	1097.9976	-1271.4669	1659.7814	1099.1855	953.54456	1704.9434	1182.3934	972.95721	1731.8938	1161.9528	1026.406	1669.1205	-1551.5643	1027.8572	1630.1499	-1552.0054	-180.33478	170.60168	-331.66138	-180.4048	209.44604	-328.18127
442	3.675	-1038.2303	214.49976	-1644.2288	-1109.4011	204.11798	-1599.3441	-1063.8071	173.06602	-1625.7053	-1054.2048	262.24057	-1634.99	-1352.9064	234.8223	1003.6443	-1281.2766	227.10309	1052.3538	-1322.8101	193.62218	1020.9837	-1284.6033	287.82065	1052.798	813.95538	187.60136	1209.3628	892.09381	178.45715	1179.2349	844.45325	145.52858	1198.2238	860.93988	292.56158	1168.6901	1115.7615	209.84494	-1401.799	1056.1224	193.84369	-1460.2783	1095.1444	162.31006	-1423.9725	1069.816	238.68144	-1425.7959	-1204.5221	1685.9231	-1563.2299	-1129.1534	1688.2815	-1606.0145	-1173.1918	1724.3704	-1581.9282	-1134.0795	1580.9608	-1603.8438	-1239.1833	1698.5231	1119.3029	-1309.2094	1698.5474	1071.8513	-1270.3491	1736.1881	1096.8613	-1245.5189	1592.7023	1110.6733	988.91962	1664.2609	1162.208	955.87683	1702.2578	1181.1244	922.80951	1662.0063	1215.0217	939.79913	1659.3962	1159.8967	999.01862	1668.4182	-1579.4556	1058.868	1670.1381	-1518.6431	1024.9608	1708.0071	-1551.1237	1059.241	1672.1107	-1585.4656	-184.53668	167.22552	-293.99976	-175.2312	174.70183	-377.52332	-180.11716	132.48781	-335.29062	-211.9355	170.30664	-333.29437	-133.14241	168.89552	-326.1626																																														-1068.7465	210.04831	-1624.9833	-1073.9084	248.69781	-1624.2289	-1321.4773	231.43535	1025.0165	-1320.1116	270.19165	1029.1498	848.12408	183.60274	1196.1882	851.86157	222.36789	1194.1158	1088.6584	202.57317	-1428.3749	1082.4918	240.85442	-1432.5605	-1171.9139	1686.9434	-1581.7405	-1170.5834	1647.9667	-1581.545	-1270.9723	1698.5341	1097.7617	-1271.6176	1659.5504	1098.6938	953.54224	1704.9423	1182.4609	972.86353	1731.9357	1161.9902	1026.4955	1669.2076	-1551.5366	1028.0366	1630.2404	-1551.9513	-180.31421	170.61797	-331.89948	-180.51497	209.46411	-328.44467
443	3.6833333	-1038.2117	214.41516	-1644.1871	-1109.3976	204.1335	-1599.3361	-1063.7158	173.04968	-1625.755	-1054.2253	262.18704	-1634.9667	-1352.9299	234.82814	1003.6942	-1281.3881	227.10284	1052.3378	-1322.8741	193.70604	1020.9824	-1284.567	287.83243	1052.7478	814.03253	187.5416	1209.4377	892.19836	178.45009	1179.2334	844.46716	145.49974	1198.298	861.00043	292.60205	1168.5699	1115.7102	209.56133	-1401.6422	1056.1906	193.91092	-1460.2889	1095.1069	162.40295	-1423.954	1069.7939	238.70201	-1425.8523	-1204.5167	1685.9192	-1563.2303	-1129.1331	1688.2754	-1606.0321	-1173.1862	1724.369	-1581.9293	-1134.0728	1580.9529	-1603.8391	-1239.427	1698.8583	1119.4117	-1309.2468	1698.6199	1071.8757	-1270.3463	1736.1782	1096.8615	-1245.5464	1592.748	1110.704	988.88629	1664.24	1162.1995	955.78894	1702.3059	1181.0983	922.68591	1662.0929	1215.0809	939.78802	1659.4122	1159.9407	999.02203	1668.4041	-1579.4387	1058.7408	1669.9642	-1518.6448	1024.953	1708.0078	-1551.1312	1059.2334	1672.1029	-1585.4561	-184.54021	167.2478	-293.98746	-175.23491	174.70784	-377.52512	-180.31931	132.37337	-335.05585	-211.81085	170.20448	-333.13007	-133.12158	168.90656	-326.1853																																														-1068.6046	210.02538	-1625.0378	-1073.7155	248.68175	-1624.2881	-1321.5513	231.43979	1025.0294	-1320.1927	270.19385	1029.1859	848.11194	183.57779	1196.2689	851.82281	222.34584	1194.2031	1088.7556	202.47372	-1428.2013	1082.6835	240.78351	-1432.2621	-1171.9108	1686.9381	-1581.7435	-1170.5828	1647.9613	-1581.5502	-1270.9563	1698.7505	1097.9452	-1271.5917	1659.7721	1099.0739	953.42645	1705.0228	1182.447	972.74097	1731.9958	1161.9432	1026.4065	1669.1195	-1551.5612	1027.8632	1630.149	-1551.9919	-180.34561	170.6106	-331.6441	-180.37234	209.45627	-328.17813
444	3.6916667	-1038.2383	214.48134	-1644.2247	-1109.3777	203.98325	-1599.3004	-1063.7729	173.04807	-1625.7372	-1054.1897	262.22031	-1634.9935	-1352.9027	234.79831	1003.6607	-1281.3533	227.23331	1052.281	-1322.8298	193.71239	1020.9906	-1284.6785	287.63959	1052.822	814.0224	187.57866	1209.4238	892.29327	178.34531	1179.2635	844.40265	145.48955	1198.3044	860.95117	292.54996	1168.6062	1115.7061	209.5816	-1401.6453	1056.2335	193.97217	-1460.3245	1095.1074	162.36151	-1423.9535	1069.8151	238.70221	-1425.8219	-1204.5741	1685.9877	-1563.0933	-1129.2	1688.4185	-1606.5656	-1173.1591	1724.2974	-1581.9567	-1134.0801	1580.9514	-1603.8445	-1240.5759	1698.272	1118.6405	-1309.2333	1698.5853	1071.8683	-1270.3641	1736.2015	1096.8661	-1245.0121	1593.3733	1106.2966	988.9071	1664.2681	1162.2174	955.89539	1702.3046	1181.1329	922.79297	1662.0144	1215.1057	939.78046	1659.4275	1159.8722	999.00909	1668.4344	-1579.4762	1058.731	1669.9689	-1518.6494	1024.9514	1708.0193	-1551.1327	1059.2386	1672.1165	-1585.4504	-184.51515	167.24057	-294.00711	-175.21642	174.71484	-377.53564	-180.32234	132.36632	-335.03897	-211.84375	170.23198	-333.16489	-133.15024	168.85658	-326.17325																																														-1068.7358	209.98079	-1624.9656	-1073.9288	248.62508	-1624.1583	-1321.5415	231.48247	1024.9716	-1320.2195	270.2453	1029.0571	848.11578	183.55678	1196.2865	851.89667	222.31865	1194.2318	1088.7754	202.51323	-1428.2167	1082.7332	240.82698	-1432.2847	-1171.9351	1687.0402	-1581.9178	-1170.6548	1648.0613	-1581.8774	-1271.1713	1698.4115	1097.7976	-1272.0038	1659.4321	1098.7585	953.58142	1704.9707	1182.4586	972.91064	1731.9391	1161.9626	1026.4022	1669.1382	-1551.5763	1027.8563	1630.1678	-1552.021	-180.32816	170.60605	-331.61783	-180.33408	209.4509	-328.14258
